<?xml version="1.0" encoding="UTF-8" standalone="no"?><!DOCTYPE svg PUBLIC "-//W3C//DTD SVG 1.1//EN" "http://www.w3.org/Graphics/SVG/1.1/DTD/svg11.dtd"><svg width="100%" height="100%" viewBox="0 0 2363 2363" version="1.1" xmlns="http://www.w3.org/2000/svg" xmlns:xlink="http://www.w3.org/1999/xlink" xml:space="preserve" xmlns:serif="http://www.serif.com/" style="fill-rule:evenodd;clip-rule:evenodd;stroke-linecap:round;stroke-linejoin:round;stroke-miterlimit:1.5;"><g><circle cx="1181.1" cy="1181.1" r="1181.1"/><g><path d="M1408.84,823.283c-0,-236.689 -233.704,-428.85 -521.561,-428.85c-287.858,0 -521.561,192.161 -521.561,428.85c-0,138.906 81.824,269.209 219.557,349.641l-52.458,264.631l216.108,-200.787c45.072,10.197 91.607,15.364 138.354,15.364c287.857,0 521.561,-192.161 521.561,-428.849Z" style="stroke:url(#_Radial1);stroke-width:62.5px;"/><path d="M822.331,1275.88c0,-266.164 262.808,-482.255 586.513,-482.255c323.705,-0 586.513,216.091 586.513,482.255c-0,156.205 -92.014,302.735 -246.9,393.184l58.991,297.586l-243.021,-225.791c-50.685,11.466 -103.015,17.277 -155.583,17.277c-323.705,-0 -586.513,-216.092 -586.513,-482.256Z" style="stroke:url(#_Radial2);stroke-width:104.17px;"/></g></g><g id="Chat"></g><defs><radialGradient id="_Radial1" cx="0" cy="0" r="1" gradientUnits="userSpaceOnUse" gradientTransform="matrix(700.569,-947.253,947.253,700.569,512.556,1437.56)"><stop offset="0" style="stop-color:#d54fff;stop-opacity:1"/><stop offset="0.5" style="stop-color:#39a4ff;stop-opacity:1"/><stop offset="1" style="stop-color:#00d67c;stop-opacity:1"/></radialGradient><radialGradient id="_Radial2" cx="0" cy="0" r="1" gradientUnits="userSpaceOnUse" gradientTransform="matrix(-787.814,-1065.22,-1065.22,787.814,1830.24,1966.65)"><stop offset="0" style="stop-color:#d54fff;stop-opacity:1"/><stop offset="0.5" style="stop-color:#39a4ff;stop-opacity:1"/><stop offset="1" style="stop-color:#00d67c;stop-opacity:1"/></radialGradient></defs></svg>